<?xml version="1.0" encoding="utf-8"?>
<!-- Generator: Adobe Illustrator 23.0.0, SVG Export Plug-In . SVG Version: 6.00 Build 0)  -->
<svg version="1.1" id="OBJECTS" xmlns="http://www.w3.org/2000/svg" xmlns:xlink="http://www.w3.org/1999/xlink" x="0px" y="0px"
	 viewBox="0 0 1366 656" enable-background="new 0 0 1366 656" xml:space="preserve">
<g>
	<linearGradient id="SVGID_1_" gradientUnits="userSpaceOnUse" x1="177.5" y1="833.5" x2="1188.5" y2="-177.5">
		<stop  offset="0" style="stop-color:#0B264D"/>
		<stop  offset="1" style="stop-color:#0E2F61"/>
	</linearGradient>
	<rect fill="url(#SVGID_1_)" width="1366" height="656"/>
	<g>
		<defs>
			<rect id="SVGID_2_" width="1366" height="656"/>
		</defs>
		<clipPath id="SVGID_3_">
			<use xlink:href="#SVGID_2_"  overflow="visible"/>
		</clipPath>
		<linearGradient id="SVGID_4_" gradientUnits="userSpaceOnUse" x1="-254.2998" y1="589.5239" x2="1006.4882" y2="589.5239">
			<stop  offset="0" style="stop-color:#4EFFBB"/>
			<stop  offset="1" style="stop-color:#2478FF"/>
		</linearGradient>
		<path clip-path="url(#SVGID_3_)" fill="url(#SVGID_4_)" d="M41.6656,289.7567c119.376-45.3396,247.5519-73.458,376.3626-96.0984
			c71.2237-12.5185,149.5661-22.7008,213.7565,5.3052c76.1143,33.2085,106.394,121.0159,62.5812,181.4776
			c-24.821,34.2531-70.4636,63.819-66.313,103.416c4.2977,40.9995,62.1583,64.8119,112.8463,64.9052
			c50.6878,0.0934,99.9601-15.1061,150.647-15.3818c50.687-0.2756,108.8593,22.5171,114.5142,63.408
			c4.0037,28.9537-20.6412,56.2472-51.0133,71.7706c-30.3723,15.5236-66.1107,22.1555-100.1829,31.3124
			c-97.0889,26.0921-182.993,73.6292-265.6773,122.489s-164.4262,100.043-257.1742,135.0259
			c-92.7482,34.9832-199.3482,52.8004-298.0996,31.2084C-85.3063,962.5273-178.452,880.751-222.2043,787.0256
			c-40.9369-87.6935-31.2287-172.4985-30.7762-263.7098c0.3771-76.0193,59.9936-113.3814,133.3928-156.8688
			C-69.1861,336.5852-14.8233,311.2115,41.6656,289.7567z"/>
		<linearGradient id="SVGID_5_" gradientUnits="userSpaceOnUse" x1="483.6553" y1="33.5232" x2="1328.1385" y2="33.5232">
			<stop  offset="0" style="stop-color:#4EC3FF"/>
			<stop  offset="0.3965" style="stop-color:#5A4EFF"/>
			<stop  offset="1" style="stop-color:#FF4EF0"/>
		</linearGradient>
		<path clip-path="url(#SVGID_3_)" fill="url(#SVGID_5_)" d="M827.0374-12.1314c-15.2162,46.7556-54.3592,88.0567-106.1306,111.9815
			c-33.5351,15.4973-71.2708,23.6985-107.6803,34.0752c-36.4097,10.3769-72.9434,23.6827-99.0444,46.7551
			c-26.101,23.0722-39.4883,57.9957-23.838,86.6291c16.894,30.9088,60.8583,45.528,101.9358,51.139
			c62.3714,8.5194,131.5605,1.5292,179.2301-32.2154c76.6266-54.2428,71.3673-153.4285,128.9734-221.4344
			c35.6985-42.1435,93.214-69.0651,152.5687-86.2187c59.3546-17.1537,121.8519-25.8458,182.4552-39.8294
			c42.3872-9.7803,91.4546-30.0921,92.6108-65.852c1.0184-31.4912-36.4524-53.8356-70.5449-68.883
			c-75.5197-33.3326-158.4952-60.4421-244.4271-58.6385c-66.9909,1.4059-136.8873,23.4393-180.8935,65.5423
			c-32.8344,31.4143-21.4319,40.7484-7.9882,76.3967C836.5043-80.228,837.7298-44.9869,827.0374-12.1314z"/>
		<linearGradient id="SVGID_6_" gradientUnits="userSpaceOnUse" x1="-366.0562" y1="340.9797" x2="352.6373" y2="340.9797">
			<stop  offset="0" style="stop-color:#4EC3FF"/>
			<stop  offset="0.3965" style="stop-color:#5A4EFF"/>
			<stop  offset="1" style="stop-color:#FF4EF0"/>
		</linearGradient>
		<path clip-path="url(#SVGID_3_)" fill="url(#SVGID_6_)" d="M140.5871,219.8635c38.8439-2.5187,77.6978-12.7723,116.0625-7.2292
			c57.2903,8.2777,101.4825,55.9363,95.433,102.9184c-6.17,47.9183-55.4038,84.3696-105.5936,110.0839
			s-106.3534,46.8259-142.8087,84.8449C61.7467,554.2137,50.2852,616.204-2.6731,651.1768
			c-40.9968,27.0735-100.0273,31.388-150.4395,18.5112c-50.4119-12.877-93.0965-40.8962-128.4903-72.7558
			c-44.3714-39.9405-80.1361-89.1134-84.0764-142.8018c-6.8279-93.0305,81.5637-179.393,66.8065-271.8153
			c-4.5677-28.6083-18.9243-55.6647-24.4705-84.1589c-5.5464-28.494-0.0538-61.2715,27.4085-79.5795
			c26.9168-17.9443,67.5646-16.2603,98.6275-3.4704c74.0193,30.4769,85.8993,82.9821,133.7337,130.5039
			C-14.7504,194.114,62.7798,224.9086,140.5871,219.8635z"/>
		<linearGradient id="SVGID_7_" gradientUnits="userSpaceOnUse" x1="262.8211" y1="650.8269" x2="857.9249" y2="650.8269">
			<stop  offset="0" style="stop-color:#4EC3FF"/>
			<stop  offset="0.3965" style="stop-color:#5A4EFF"/>
			<stop  offset="1" style="stop-color:#FF4EF0"/>
		</linearGradient>
		<path clip-path="url(#SVGID_3_)" fill="url(#SVGID_7_)" d="M399.2627,686.91c24.8605-34.2462,33.2782-74.4415,42.8328-113.4278
			c9.5548-38.9863,21.4623-79.1113,51.5889-110.4478c30.1263-31.3367,83.402-51.4243,129.2184-37.3972
			c36.9058,11.2991,60.7541,41.2434,96.45,54.8655c24.3546,9.2941,52.1332,10.2105,78.1467,15.8068
			c26.0135,5.5963,52.9458,18.5004,59.1418,39.7598c6.1174,20.9888-10.511,42.2875-31.2097,55.81
			c-20.6985,13.5225-45.7485,22.1068-66.4686,35.6075c-68.2453,44.467-73.7049,129.3874-133.3328,181.3822
			c-37.7743,32.9385-92.7563,48.6602-146.3607,60.1357c-34.3087,7.3448-69.6815,13.4815-105.0312,10.9996
			c-57.6596-4.0482-132.8372-47.0518-105.7009-101.7938C289.2063,736.5153,369.1645,728.3713,399.2627,686.91z"/>
		<linearGradient id="SVGID_8_" gradientUnits="userSpaceOnUse" x1="-43.2907" y1="271.6768" x2="868.4736" y2="271.6768">
			<stop  offset="0" style="stop-color:#4EFFBB"/>
			<stop  offset="1" style="stop-color:#2478FF"/>
		</linearGradient>
		<path clip-path="url(#SVGID_3_)" fill="url(#SVGID_8_)" d="M301.1771,181.6055c0.1679,18.6663,0.3411,37.9675,2.8279,56.8531
			c5.5837,42.4172,23.5968,75.8976,52.0927,96.8201c51.7247,37.9771,130.8025,33.7266,200.8641,26.7594l180.3245-17.9333
			c35.7012-3.5466,72.7839-5.6378,99.4055,10.8281c47.6303,29.4638,25.2484,92.2683,17.2556,110.8149
			c-6.3455,14.7209-13.7551,29.0824-22.1144,43.0376c0.6124,0.3446,1.2244,0.6888,1.8227,1.0451
			c8.4613-14.0999,15.9573-28.6133,22.3705-43.4923c6.5295-15.1469,13.9436-38.089,12.1852-61.3613
			c-1.726-22.8285-11.8817-40.1452-30.1852-51.466c-27.278-16.8746-64.8579-14.7766-101.0067-11.1811l-180.3256,17.9333
			c-69.5794,6.9165-148.0816,11.1601-199.1176-26.3122c-28.0881-20.6222-45.8547-53.7094-51.3802-95.6829
			c-2.475-18.7964-2.6471-38.0532-2.815-56.6756c-0.1494-16.6066-0.3034-33.7782-2.0854-50.6083
			c-2.9149-27.5308-14.9516-76.1378-62.8175-92.3538c-27.4199-9.2899-60.3977-5.9653-103.7819,10.4603
			c-58.1724,22.0258-112.3503,54.5435-156.6794,94.039c-7.3795,6.575-14.4703,13.3697-21.3074,20.3268
			c0.5309,0.4152,1.0666,0.8265,1.6017,1.238c6.844-6.9693,13.9445-13.7747,21.3349-20.3594
			C23.78,105.0125,77.717,72.6381,135.628,50.7119C178.4086,34.5151,210.8191,31.2,237.6299,40.2812
			c16.1698,5.4778,54.5289,25.298,61.4705,90.8566C300.8747,147.8972,301.0287,165.0339,301.1771,181.6055z"/>
		<linearGradient id="SVGID_9_" gradientUnits="userSpaceOnUse" x1="-281.8239" y1="607.6492" x2="625.4161" y2="607.6492">
			<stop  offset="0" style="stop-color:#4EC3FF"/>
			<stop  offset="0.3965" style="stop-color:#5A4EFF"/>
			<stop  offset="1" style="stop-color:#FF4EF0"/>
		</linearGradient>
		<path clip-path="url(#SVGID_3_)" fill="url(#SVGID_9_)" d="M0.1637,467.5764c50.2563,21.9355,112.8741,24.1862,165.322,5.9424
			c21.424-7.4521,41.1619-18.0902,63.3223-23.9538c22.1607-5.8635,48.5872-6.0975,66.5942,5.9161
			c28.9219,19.2953,20.876,55.8034,26.2621,85.877c8.6708,48.4138,63.998,88.4684,124.2366,89.9418
			c31.1062,0.7609,61.4776-7.5523,92.5306-9.2139c31.0528-1.6616,66.6123,5.8033,81.0488,28.1837
			c13.697,21.2335,2.2787,48.855-19.8401,64.7321c-22.1188,15.8771-52.302,22.1131-81.6401,24.8125
			c-29.3379,2.6993-59.1866,2.4083-88.0028,7.6308c-69.5929,12.6128-123.9384,55.1105-184.5537,85.5967
			c-61.8793,31.122-135.7717,50.5579-207.6299,41.1169c-71.8579-9.4409-139.398-52.5511-153.4046-110.5392
			c-9.2009-38.0922,4.0763-79.7109-15.8346-115.0032c-16.5125-29.2688-52.1791-47.5814-80.8239-69.8437
			c-35.5211-27.6063-61.9501-63.9946-68.2241-103.5882c-6.2739-39.5931,9.3695-82.164,45.6663-109.0966
			c33.4754-24.8393,106.4872-43.1734,136.1435-7.1251c13.979,16.992,16.3256,40.6042,31.1835,58.5068
			C-50.255,438.2242-27.027,455.7084,0.1637,467.5764z"/>
		<linearGradient id="SVGID_10_" gradientUnits="userSpaceOnUse" x1="287.3198" y1="632.8911" x2="546.5637" y2="632.8911">
			<stop  offset="0" style="stop-color:#4EFFBB"/>
			<stop  offset="1" style="stop-color:#2478FF"/>
		</linearGradient>
		<path clip-path="url(#SVGID_3_)" fill="url(#SVGID_10_)" d="M353.0791,592.5266c-16.226-1.2015-33.8097-0.4383-46.8735,7.4661
			c-21.657,13.1038-21.7039,39.4786-14.861,60.6902c7.9071,24.5109,26.856,50.5606,57.7545,54.1415
			c25.4557,2.9504,48.9491-10.4078,73.7593-15.8923c19.0539-4.212,39.3544-3.7778,58.2714-8.3785
			c25.9159-6.3029,47.9481-22.3843,58.4139-42.6364c10.4658-20.2522,9.1614-44.2808-3.4583-63.707
			c-9.8402-15.1476-26.8774-27.628-47.3405-31.7886c-36.1594-7.3519-37.0532,8.1221-53.9921,23.6891
			C410.4877,598.4111,389.0494,595.1902,353.0791,592.5266z"/>
	</g>
</g>
</svg>
